<svg xmlns="http://www.w3.org/2000/svg" xmlns:xlink="http://www.w3.org/1999/xlink" data-v-0dd9719b="" version="1.0" preserveAspectRatio="xMidYMid meet" color-interpolation-filters="sRGB" style="margin: auto;" viewBox="49.95 57.31 240.11 135.39"> <rect data-v-0dd9719b="" x="0" y="0" width="" height="40" fill="#284a6e" fill-opacity="1" class="background"/> <rect data-v-0dd9719b="" x="0" y="0" width="%" height="%" fill="url(#watermark)" fill-opacity="1" class="watermarklayer"/> <g data-v-0dd9719b="" fill="#69b0ab" class="iconblsvg-g iconsvg" transform="translate(49.94713592529297,57.305946350097656)"><g class="tp-name" transform="translate(0,0)"><g data-gra="path-name" transform="translate(0, 50.725025975913205)"><g transform="scale(0.8199999999999996)"><path d="M24-17.45L24 0 20.55 0 20.55-11.26 14.47-0.57Q14.24-0.16 13.84 0.05 13.44 0.26 12.98 0.26L12.98 0.26Q12.53 0.26 12.14 0.05 11.75-0.16 11.53-0.57L11.53-0.57 5.42-11.26 5.42 0 1.99 0 1.99-17.45Q1.99-18.04 2.34-18.5 2.69-18.97 3.26-19.12L3.26-19.12Q3.53-19.19 3.81-19.17 4.09-19.15 4.35-19.05 4.6-18.95 4.81-18.77 5.02-18.6 5.17-18.35L5.17-18.35 12.98-4.77 20.79-18.35Q21.09-18.85 21.62-19.06 22.16-19.27 22.74-19.12L22.74-19.12Q23.29-18.97 23.65-18.5 24-18.04 24-17.45L24-17.45ZM41.26-9.54L41.26-4.72Q41.26-4.01 41.01-3.19 40.75-2.36 40.19-1.66 39.63-0.95 38.73-0.47 37.83 0 36.53 0L36.53 0 30.35 0Q29.64 0 28.81-0.25 27.99-0.5 27.28-1.06 26.58-1.62 26.1-2.53 25.63-3.43 25.63-4.72L25.63-4.72Q25.63-5.43 25.88-6.26 26.13-7.1 26.69-7.8 27.25-8.51 28.15-8.98 29.06-9.46 30.35-9.46L30.35-9.46 36.53-9.46 36.53-6.19 30.35-6.19Q29.65-6.19 29.27-5.76 28.89-5.33 28.89-4.7L28.89-4.7Q28.89-4.02 29.33-3.65 29.77-3.27 30.38-3.27L30.38-3.27 36.53-3.27Q37.23-3.27 37.62-3.69 38-4.11 38-4.75L38-4.75 38-9.54Q38-10.21 37.58-10.6 37.17-11 36.53-11L36.53-11 29-11 29-14.26 36.53-14.26Q37.25-14.26 38.07-14.01 38.9-13.76 39.6-13.2 40.31-12.63 40.78-11.73 41.26-10.83 41.26-9.54L41.26-9.54ZM55.91-9.46L55.91 0 52.48 0 52.48-9.46Q52.48-10.13 52.13-10.48 51.77-10.83 51.07-10.83L51.07-10.83 46.61-10.83 46.61 0 43.18 0 43.18-12.56Q43.18-12.91 43.32-13.22 43.45-13.53 43.69-13.76 43.92-13.99 44.24-14.12 44.56-14.26 44.91-14.26L44.91-14.26 51.1-14.26Q51.81-14.26 52.63-14.01 53.44-13.76 54.18-13.2L54.18-13.2 54.18-14.26 58.83-14.26Q59.31-14.26 59.85-14.14 60.39-14.03 60.93-13.8 61.46-13.56 61.95-13.18 62.44-12.81 62.81-12.27 63.18-11.74 63.4-11.04 63.63-10.34 63.63-9.46L63.63-9.46 63.63 0 60.2 0 60.2-9.46Q60.2-10.13 59.86-10.48 59.52-10.83 58.83-10.83L58.83-10.83 55.74-10.83Q55.91-10.19 55.91-9.46L55.91-9.46ZM80.5-9.54L80.5-4.72Q80.5-4.01 80.25-3.19 80-2.36 79.43-1.66 78.87-0.95 77.97-0.47 77.07 0 75.78 0L75.78 0 69.59 0Q68.88 0 68.05-0.25 67.23-0.5 66.52-1.06 65.82-1.62 65.34-2.53 64.87-3.43 64.87-4.72L64.87-4.72Q64.87-5.43 65.12-6.26 65.37-7.1 65.93-7.8 66.49-8.51 67.39-8.98 68.3-9.46 69.59-9.46L69.59-9.46 75.78-9.46 75.78-6.19 69.59-6.19Q68.89-6.19 68.51-5.76 68.13-5.33 68.13-4.7L68.13-4.7Q68.13-4.02 68.57-3.65 69.01-3.27 69.62-3.27L69.62-3.27 75.78-3.27Q76.47-3.27 76.86-3.69 77.24-4.11 77.24-4.75L77.24-4.75 77.24-9.54Q77.24-10.21 76.82-10.6 76.41-11 75.78-11L75.78-11 68.24-11 68.24-14.26 75.78-14.26Q76.49-14.26 77.31-14.01 78.14-13.76 78.84-13.2 79.55-12.63 80.02-11.73 80.5-10.83 80.5-9.54L80.5-9.54Z" transform="translate(-1.9900000095367432, 20.280000686645508)"/></g></g> <g transform="translate(67.37820434570312, 0)"><g><g class="imagesvg"><g><rect fill="#69b0ab" fill-opacity="0" stroke-width="2" x="0" y="0" width="113.00811543956542" height="118.29594414274617" class="image-rect"/> <svg x="0" y="0" width="113.00811543956542" height="118.29594414274617" filtersec="colorsb1466024559" class="image-svg-svg primary" style="overflow: visible;"><svg xmlns="http://www.w3.org/2000/svg" viewBox="-0.07950999999999997 -0.7369699999999999 960.95721 1005.737"><g stroke-width="2" fill="none" stroke-linecap="butt"><path stroke="#258695" d="M 639.77 495.29 Q 642.39 489.85 646.17 484.92 Q 650.90 478.76 654.80 472.81 Q 661.65 462.37 663.04 460.39 Q 680.11 435.95 696.21 408.01 Q 700.14 401.19 703.92 394.01 Q 705.52 390.98 704.77 388.76 C 703.13 383.91 701.62 378.76 699.69 374.01 C 695.83 364.50 692.02 354.79 687.41 345.20 C 679.31 328.32 672.37 314.36 663.85 299.58 Q 659.09 291.35 653.52 282.46 Q 647.98 273.60 642.23 264.50 C 627.78 241.61 611.16 219.82 590.77 197.23 C 582.13 187.65 573.49 177.92 564.37 168.93 Q 537.32 142.27 507.01 119.37 C 501.62 115.30 496.01 111.47 490.51 107.52 Q 455.55 82.41 413.75 62.10 Q 393.61 52.32 386.26 49.70 Q 382.91 48.51 379.59 47.26 Q 376.53 46.11 372.76 45.42 Q 367.14 44.38 361.78 42.68" data-c-stroke="8a5430"/><path stroke="#720f10" d="M 574.53 571.75 Q 573.38 569.42 573.55 566.37 Q 574.19 554.95 572.92 544.61 Q 572.85 544.08 573.38 544.03 Q 578.92 543.49 584.82 541.90 Q 584.88 541.88 584.89 541.82 Q 584.89 541.77 584.88 541.72 Q 584.86 541.60 584.73 541.60 Q 579.26 542.02 573.90 541.80 A 2.06 2.05 89.4 0 1 571.94 539.88 Q 571.52 533.27 570.33 527.36 C 569.47 523.09 569.25 519.03 568.61 514.77 A 1.17 1.16 -28.5 0 1 568.90 513.82 L 570.28 512.32 A 0.74 0.74 0.0 0 0 569.97 511.12 Q 566.85 510.06 566.22 506.74 Q 564.99 500.36 562.27 494.50" data-c-stroke="63381f"/><path stroke="#3c2932" d="M 562.27 494.50 L 560.29 481.53" data-c-stroke="4d2c18"/><path stroke="#720f10" d="M 560.29 481.53 Q 557.34 465.93 552.03 446.26 Q 536.59 389.09 513.68 337.74 C 512.33 334.73 510.73 331.87 509.47 328.82 C 507.12 323.14 504.24 317.54 501.58 312.03 C 500.25 309.28 498.61 306.73 497.30 303.94 Q 495.97 301.11 494.23 297.84 C 483.37 277.42 471.45 257.70 457.66 237.74 Q 452.32 230.01 445.81 221.73 Q 434.87 207.80 424.90 196.51 Q 406.23 175.36 381.42 155.91 C 377.93 153.18 374.22 150.74 370.67 148.02 C 352.84 134.38 332.27 123.76 310.67 116.03 C 309.52 115.62 308.31 116.09 307.28 116.60 C 300.31 120.02 293.30 123.32 286.74 127.22 Q 274.14 134.73 262.55 143.36 C 257.88 146.84 253.05 150.21 248.84 153.70 Q 247.83 154.53 239.63 162.30 Q 235.13 166.56 229.95 170.37" data-c-stroke="63381f"/><path stroke="#11132c" d="M 560.29 481.53 Q 554.05 486.81 547.99 491.69 Q 542.55 496.07 538.96 497.23 C 528.81 500.51 520.00 497.24 513.32 489.50 Q 510.23 485.93 504.64 483.09 C 502.84 482.18 500.94 481.13 498.87 481.56 A 2.18 2.16 6.0 0 0 497.34 482.79 C 493.06 492.16 489.04 501.16 483.46 510.33 Q 478.60 518.32 474.47 525.74 C 471.55 531.00 468.32 535.88 465.56 540.88 C 460.28 550.42 453.46 559.03 446.13 566.96 Q 433.58 580.52 413.50 588.96 C 406.60 591.87 400.04 594.51 392.93 596.57 C 388.06 597.98 383.28 599.49 378.34 600.77 Q 365.78 604.02 353.82 609.60" data-c-stroke="31190c"/><path stroke="#720f10" d="M168.61 558.71Q177.01 551.33 179.85 548.1 187.48 539.43 192.37 534.65 196.52 530.59 204.32 526.29 204.79 526.03 205.03 525.55 205.52 524.61 204.73 524.44M204.94 520.48Q204.95 519.09 204.01 518.78 193.92 515.46 188.26 508.62 185.61 505.42 182.84 501.7 182.56 501.32 182.12 501.15 178.6 499.75 177.36 498.16 174.44 494.41 172.7 492.72 168.4 488.56 165.11 484.41 162.75 481.42 163.03 479.26C163.34 476.85 162.44 475.12 162.34 472.84Q162.31 472.27 161.79 472.03 158.55 470.51 157.49 467.88M362.91 309.37Q365.43 310.53 367.89 311.99 370.28 313.41 368.7 311.12C365.82 306.97 361.52 304.04 357.97 300.69Q345.31 288.76 330.02 281.97 317.51 276.41 306.13 274.92 270.16 270.19 239.04 291.14C235.25 293.69 232.26 296.97 228.18 299.38A.29.29 0 0 0 228.3 299.92Q229.79 300.03 231.46 299.41C238.32 296.85 244.95 294.18 252 292.3Q266.19 288.52 280.31 288.89 296.35 289.32 312.76 292.7 337.99 297.89 362.91 309.37" data-c-stroke="63381f"/><path stroke="#11132c" d="M 562.27 494.50 C 561.64 497.94 561.62 501.44 560.99 504.81 Q 559.08 514.93 556.39 521.38 Q 549.91 536.88 539.36 559.86 Q 536.30 566.55 532.50 573.93 Q 529.02 580.67 525.48 587.55 Q 520.84 596.54 515.82 605.02 C 509.29 616.04 503.29 626.74 495.78 637.53 Q 489.59 646.44 483.13 655.80 Q 474.62 668.12 456.54 690.05 Q 447.88 700.55 439.53 708.30 Q 433.90 713.52 428.34 719.08 Q 412.70 734.69 394.35 750.73 C 393.10 751.82 391.00 752.68 390.15 750.59 Q 388.93 747.57 387.85 746.82" data-c-stroke="31190c"/><path stroke="#8f2802" d="M 668.38 1003.00 Q 660.93 998.50 653.51 993.95 Q 646.46 989.63 638.47 985.32 C 630.81 981.18 623.02 976.77 615.32 972.97 Q 606.51 968.62 597.38 964.05 C 589.95 960.34 582.05 957.23 574.28 953.75 C 566.48 950.26 558.50 947.31 550.75 943.98 Q 542.53 940.45 534.23 937.65 Q 514.48 931.00 496.98 925.14 Q 487.08 921.82 476.59 918.96 Q 458.26 913.94 442.59 910.01 Q 424.46 905.46 394.14 899.86 Q 385.41 898.24 375.11 896.69 Q 363.72 894.97 355.87 894.03 Q 337.71 891.85 314.25 889.74 Q 312.82 889.61 309.72 889.71" data-c-stroke="6d4125"/><path stroke="#720f10" d="M 309.72 889.71 Q 309.19 889.52 309.16 889.31 A 0.75 0.74 -26.7 0 1 309.38 888.66 Q 317.06 881.08 320.69 872.24 C 321.51 870.25 321.69 868.18 321.95 866.07 Q 322.22 863.83 322.01 861.48 Q 321.71 858.00 321.35 854.13 Q 320.62 846.06 318.17 837.74 C 317.26 834.63 315.80 831.98 314.26 829.13 C 313.19 827.15 313.48 825.28 313.45 823.09 C 313.39 820.02 314.18 816.77 314.39 813.50 Q 314.48 812.18 316.26 809.58" data-c-stroke="63381f"/><path stroke="#258695" d="M 309.72 889.71 Q 293.59 889.27 277.49 888.65 C 245.65 887.42 214.66 888.26 181.10 892.18 Q 163.12 894.29 139.38 899.59 Q 115.75 904.86 96.89 911.78 Q 86.91 915.44 76.26 919.55 Q 69.89 922.01 63.56 925.18 C 62.73 925.60 61.90 925.55 61.05 925.73" data-c-stroke="8a5430"/></g><path fill="#e7dfd4" d="M 639.77 495.29 Q 642.39 489.85 646.17 484.92 Q 650.90 478.76 654.80 472.81 Q 661.65 462.37 663.04 460.39 Q 680.11 435.95 696.21 408.01 Q 700.14 401.19 703.92 394.01 Q 705.52 390.98 704.77 388.76 C 703.13 383.91 701.62 378.76 699.69 374.01 C 695.83 364.50 692.02 354.79 687.41 345.20 C 679.31 328.32 672.37 314.36 663.85 299.58 Q 659.09 291.35 653.52 282.46 Q 647.98 273.60 642.23 264.50 C 627.78 241.61 611.16 219.82 590.77 197.23 C 582.13 187.65 573.49 177.92 564.37 168.93 Q 537.32 142.27 507.01 119.37 C 501.62 115.30 496.01 111.47 490.51 107.52 Q 455.55 82.41 413.75 62.10 Q 393.61 52.32 386.26 49.70 Q 382.91 48.51 379.59 47.26 Q 376.53 46.11 372.76 45.42 Q 367.14 44.38 361.78 42.68 Q 362.58 39.34 363.14 36.43 C 364.19 30.94 363.44 25.32 362.59 19.84 Q 362.06 16.41 363.01 13.36 C 364.22 9.50 370.66 8.61 374.03 8.27 C 382.44 7.44 391.12 5.72 399.43 4.86 C 410.35 3.73 421.45 2.56 432.61 2.02 C 453.15 1.02 474.03 0.83 493.26 2.57 Q 514.73 4.53 536.41 8.40 Q 545.98 10.11 555.88 12.66 Q 574.11 17.34 583.02 20.53 Q 593.01 24.10 604.25 28.62 Q 614.32 32.67 622.60 36.53 Q 657.92 53.02 691.45 76.19 Q 695.87 79.25 700.19 82.76 C 703.95 85.81 708.04 88.42 711.88 91.53 Q 718.20 96.63 724.16 101.65 Q 743.03 117.52 761.77 140.80 C 778.64 161.76 792.07 183.71 800.30 207.80 Q 805.36 222.63 807.38 240.27 Q 809.51 258.92 806.82 274.93 A 1.74 1.73 18.3 0 0 807.75 276.76 C 815.26 280.53 821.91 284.51 826.64 290.69 Q 829.94 295.00 833.70 302.51 Q 839.46 314.01 840.95 326.78 Q 843.94 352.42 836.58 375.98 Q 819.40 431.05 776.86 468.95 Q 769.81 475.23 761.26 481.08 Q 747.48 490.51 731.74 497.51 C 707.24 508.40 678.09 511.43 652.83 501.54 C 649.00 500.05 645.48 497.75 641.74 495.98 C 641.07 495.66 640.50 495.58 639.77 495.29 Z" data-c-fill="945d36"/><path fill="#69b0ab" d="M 361.78 42.68 Q 367.14 44.38 372.76 45.42 Q 376.53 46.11 379.59 47.26 Q 382.91 48.51 386.26 49.70 Q 393.61 52.32 413.75 62.10 Q 455.55 82.41 490.51 107.52 C 496.01 111.47 501.62 115.30 507.01 119.37 Q 537.32 142.27 564.37 168.93 C 573.49 177.92 582.13 187.65 590.77 197.23 C 611.16 219.82 627.78 241.61 642.23 264.50 Q 647.98 273.60 653.52 282.46 Q 659.09 291.35 663.85 299.58 C 672.37 314.36 679.31 328.32 687.41 345.20 C 692.02 354.79 695.83 364.50 699.69 374.01 C 701.62 378.76 703.13 383.91 704.77 388.76 Q 705.52 390.98 703.92 394.01 Q 700.14 401.19 696.21 408.01 Q 680.11 435.95 663.04 460.39 Q 661.65 462.37 654.80 472.81 Q 650.90 478.76 646.17 484.92 Q 642.39 489.85 639.77 495.29 Q 631.27 506.69 626.22 512.97 Q 613.13 529.25 596.93 547.78 C 590.99 554.57 584.14 560.72 577.56 567.05 Q 576.15 568.41 574.53 571.75 Q 573.38 569.42 573.55 566.37 Q 574.19 554.95 572.92 544.61 Q 572.85 544.08 573.38 544.03 Q 578.92 543.49 584.82 541.90 Q 584.88 541.88 584.89 541.82 Q 584.89 541.77 584.88 541.72 Q 584.86 541.60 584.73 541.60 Q 579.26 542.02 573.90 541.80 A 2.06 2.05 89.4 0 1 571.94 539.88 Q 571.52 533.27 570.33 527.36 C 569.47 523.09 569.25 519.03 568.61 514.77 A 1.17 1.16 -28.5 0 1 568.90 513.82 L 570.28 512.32 A 0.74 0.74 0.0 0 0 569.97 511.12 Q 566.85 510.06 566.22 506.74 Q 564.99 500.36 562.27 494.50 L 560.29 481.53 Q 557.34 465.93 552.03 446.26 Q 536.59 389.09 513.68 337.74 C 512.33 334.73 510.73 331.87 509.47 328.82 C 507.12 323.14 504.24 317.54 501.58 312.03 C 500.25 309.28 498.61 306.73 497.30 303.94 Q 495.97 301.11 494.23 297.84 C 483.37 277.42 471.45 257.70 457.66 237.74 Q 452.32 230.01 445.81 221.73 Q 434.87 207.80 424.90 196.51 Q 406.23 175.36 381.42 155.91 C 377.93 153.18 374.22 150.74 370.67 148.02 C 352.84 134.38 332.27 123.76 310.67 116.03 C 309.52 115.62 308.31 116.09 307.28 116.60 C 300.31 120.02 293.30 123.32 286.74 127.22 Q 274.14 134.73 262.55 143.36 C 257.88 146.84 253.05 150.21 248.84 153.70 Q 247.83 154.53 239.63 162.30 Q 235.13 166.56 229.95 170.37 Q 232.42 163.77 234.55 158.04 Q 235.88 154.48 239.97 147.41 Q 243.05 142.10 246.53 137.21 Q 269.08 105.50 300.00 81.87 Q 306.13 77.18 311.70 73.69 C 317.28 70.19 322.60 66.42 328.21 63.22 Q 341.53 55.60 356.81 48.84 Q 361.26 46.87 361.78 42.68 Z" data-c-fill="7f4b2a"/><path fill="#e7dfd4" d="M 560.29 481.53 Q 554.05 486.81 547.99 491.69 Q 542.55 496.07 538.96 497.23 C 528.81 500.51 520.00 497.24 513.32 489.50 Q 510.23 485.93 504.64 483.09 C 502.84 482.18 500.94 481.13 498.87 481.56 A 2.18 2.16 6.0 0 0 497.34 482.79 C 493.06 492.16 489.04 501.16 483.46 510.33 Q 478.60 518.32 474.47 525.74 C 471.55 531.00 468.32 535.88 465.56 540.88 C 460.28 550.42 453.46 559.03 446.13 566.96 Q 433.58 580.52 413.50 588.96 C 406.60 591.87 400.04 594.51 392.93 596.57 C 388.06 597.98 383.28 599.49 378.34 600.77 Q 365.78 604.02 353.82 609.60 Q 353.22 608.37 351.50 608.77 Q 344.50 610.39 338.72 611.64 Q 328.92 613.77 319.06 615.67 Q 313.71 616.71 307.96 617.50 C 302.95 618.19 298.04 619.39 293.04 620.08 Q 284.85 621.20 276.22 622.62 C 267.02 624.13 258.44 624.89 249.18 625.69 C 245.44 626.02 241.88 626.92 238.09 627.21 Q 222.18 628.44 206.83 627.59 Q 203.28 627.39 198.38 626.13 Q 194.02 625.00 190.70 623.45 Q 176.80 616.97 171.27 601.96 Q 169.53 597.26 168.53 587.56 C 167.85 580.97 166.92 573.54 167.66 566.73 Q 168.09 562.73 168.61 558.71 Q 177.01 551.33 179.85 548.10 Q 187.48 539.43 192.37 534.65 Q 196.52 530.59 204.32 526.29 Q 204.79 526.03 205.03 525.55 Q 205.52 524.61 204.73 524.44 L 210.37 522.02 Q 210.91 521.79 210.38 521.52 Q 207.88 520.23 204.94 520.48 Q 204.95 519.09 204.01 518.78 Q 193.92 515.46 188.26 508.62 Q 185.61 505.42 182.84 501.70 Q 182.56 501.32 182.12 501.15 Q 178.60 499.75 177.36 498.16 Q 174.44 494.41 172.70 492.72 Q 168.40 488.56 165.11 484.41 Q 162.75 481.42 163.03 479.26 C 163.34 476.85 162.44 475.12 162.34 472.84 Q 162.31 472.27 161.79 472.03 Q 158.55 470.51 157.49 467.88 Q 161.35 463.09 165.28 459.06 Q 166.58 457.73 167.56 452.83 C 168.12 450.04 167.02 446.52 164.01 445.64 Q 147.90 440.92 147.97 422.70 C 148.01 412.85 156.28 402.10 162.55 395.09 C 168.70 388.20 174.61 380.97 179.66 373.38 C 185.72 364.26 187.15 355.45 186.53 344.05 Q 185.95 333.33 183.88 325.28 Q 180.68 312.80 175.16 295.30 Q 174.57 293.43 175.06 291.50 Q 180.09 271.81 185.97 251.57 Q 191.69 231.87 202.42 211.42 Q 210.99 195.11 221.60 182.01 Q 223.76 179.34 225.84 176.18 Q 227.92 173.04 229.95 170.37 Q 235.13 166.56 239.63 162.30 Q 247.83 154.53 248.84 153.70 C 253.05 150.21 257.88 146.84 262.55 143.36 Q 274.14 134.73 286.74 127.22 C 293.30 123.32 300.31 120.02 307.28 116.60 C 308.31 116.09 309.52 115.62 310.67 116.03 C 332.27 123.76 352.84 134.38 370.67 148.02 C 374.22 150.74 377.93 153.18 381.42 155.91 Q 406.23 175.36 424.90 196.51 Q 434.87 207.80 445.81 221.73 Q 452.32 230.01 457.66 237.74 C 471.45 257.70 483.37 277.42 494.23 297.84 Q 495.97 301.11 497.30 303.94 C 498.61 306.73 500.25 309.28 501.58 312.03 C 504.24 317.54 507.12 323.14 509.47 328.82 C 510.73 331.87 512.33 334.73 513.68 337.74 Q 536.59 389.09 552.03 446.26 Q 557.34 465.93 560.29 481.53 Z M 362.91 309.37 Q 365.43 310.53 367.89 311.99 Q 370.28 313.41 368.70 311.12 C 365.82 306.97 361.52 304.04 357.97 300.69 Q 345.31 288.76 330.02 281.97 Q 317.51 276.41 306.13 274.92 Q 270.16 270.19 239.04 291.14 C 235.25 293.69 232.26 296.97 228.18 299.38 A 0.29 0.29 0.0 0 0 228.30 299.92 Q 229.79 300.03 231.46 299.41 C 238.32 296.85 244.95 294.18 252.00 292.30 Q 266.19 288.52 280.31 288.89 Q 296.35 289.32 312.76 292.70 Q 337.99 297.89 362.91 309.37 Z" data-c-fill="462513"/><path fill="#69b0ab" d="M362.91 309.37Q337.99 297.89 312.76 292.7 296.35 289.32 280.31 288.89 266.19 288.52 252 292.3C244.95 294.18 238.32 296.85 231.46 299.41Q229.79 300.03 228.3 299.92A.29.29 0 0 1 228.18 299.38C232.26 296.97 235.25 293.69 239.04 291.14Q270.16 270.19 306.13 274.92 317.51 276.41 330.02 281.97 345.31 288.76 357.97 300.69C361.52 304.04 365.82 306.97 368.7 311.12Q370.28 313.41 367.89 311.99 365.43 310.53 362.91 309.37ZM157.49 467.88Q158.55 470.51 161.79 472.03 162.31 472.27 162.34 472.84C162.44 475.12 163.34 476.85 163.03 479.26Q162.75 481.42 165.11 484.41 168.4 488.56 172.7 492.72 174.44 494.41 177.36 498.16 178.6 499.75 182.12 501.15 182.56 501.32 182.84 501.7 185.61 505.42 188.26 508.62 193.92 515.46 204.01 518.78 204.95 519.09 204.94 520.48 204.17 522.41 204.73 524.44 205.52 524.61 205.03 525.55 204.79 526.03 204.32 526.29 196.52 530.59 192.37 534.65 187.48 539.43 179.85 548.1 177.01 551.33 168.61 558.71 163.06 556.12 157.63 553.38C152.08 550.58 145.73 546.13 144.66 539.45Q143.56 532.6 146.63 526.23C149.05 521.19 151.98 516.08 151.5 510.34A2 1.99 86.4 0 0 149.43 508.51L142.69 508.77A.67.67 0 0 1 141.99 508.11Q141.87 502.64 142.47 497.44 143.24 490.78 147.36 483.32 152.76 473.53 157.49 467.88Z" data-c-fill="7f4b2a"/><path fill="#69b0ab" d="M 560.29 481.53 L 562.27 494.50 C 561.64 497.94 561.62 501.44 560.99 504.81 Q 559.08 514.93 556.39 521.38 Q 549.91 536.88 539.36 559.86 Q 536.30 566.55 532.50 573.93 Q 529.02 580.67 525.48 587.55 Q 520.84 596.54 515.82 605.02 C 509.29 616.04 503.29 626.74 495.78 637.53 Q 489.59 646.44 483.13 655.80 Q 474.62 668.12 456.54 690.05 Q 447.88 700.55 439.53 708.30 Q 433.90 713.52 428.34 719.08 Q 412.70 734.69 394.35 750.73 C 393.10 751.82 391.00 752.68 390.15 750.59 Q 388.93 747.57 387.85 746.82 Q 388.30 745.44 387.88 743.87 Q 382.70 724.36 378.60 705.00 Q 376.35 694.38 374.05 685.60 Q 371.40 675.53 369.14 666.27 Q 365.91 653.10 362.29 638.72 Q 360.82 632.88 359.32 627.96 Q 356.39 618.36 353.82 609.60 Q 365.78 604.02 378.34 600.77 C 383.28 599.49 388.06 597.98 392.93 596.57 C 400.04 594.51 406.60 591.87 413.50 588.96 Q 433.58 580.52 446.13 566.96 C 453.46 559.03 460.28 550.42 465.56 540.88 C 468.32 535.88 471.55 531.00 474.47 525.74 Q 478.60 518.32 483.46 510.33 C 489.04 501.16 493.06 492.16 497.34 482.79 A 2.18 2.16 6.0 0 1 498.87 481.56 C 500.94 481.13 502.84 482.18 504.64 483.09 Q 510.23 485.93 513.32 489.50 C 520.00 497.24 528.81 500.51 538.96 497.23 Q 542.55 496.07 547.99 491.69 Q 554.05 486.81 560.29 481.53 Z" data-c-fill="1b0c05"/><path fill="#e7dfd4" d="M 562.27 494.50 Q 564.99 500.36 566.22 506.74 Q 566.85 510.06 569.97 511.12 A 0.74 0.74 0.0 0 1 570.28 512.32 L 568.90 513.82 A 1.17 1.16 -28.5 0 0 568.61 514.77 C 569.25 519.03 569.47 523.09 570.33 527.36 Q 571.52 533.27 571.94 539.88 A 2.06 2.05 89.4 0 0 573.90 541.80 Q 579.26 542.02 584.73 541.60 Q 584.86 541.60 584.88 541.72 Q 584.89 541.77 584.89 541.82 Q 584.88 541.88 584.82 541.90 Q 578.92 543.49 573.38 544.03 Q 572.85 544.08 572.92 544.61 Q 574.19 554.95 573.55 566.37 Q 573.38 569.42 574.53 571.75 Q 573.27 575.81 572.98 580.75 C 572.56 587.95 571.95 595.21 572.29 602.42 Q 572.49 606.76 572.67 610.74 Q 574.05 640.18 586.66 666.09 Q 599.36 692.17 622.70 708.29 Q 641.78 721.45 666.48 725.38 Q 674.71 726.69 681.95 727.44 C 693.24 728.60 702.55 728.24 716.57 727.88 Q 753.20 726.95 783.74 734.28 Q 806.93 739.85 830.58 753.80 C 835.79 756.87 840.65 760.62 845.56 764.31 C 852.18 769.27 858.13 774.84 864.13 780.34 C 870.39 786.08 875.42 793.04 881.49 800.81 Q 887.88 809.00 892.69 816.65 Q 901.56 830.77 907.88 843.72 Q 910.40 848.88 916.51 862.58 Q 920.37 871.24 923.83 880.50 C 935.02 910.52 944.41 939.83 951.46 969.57 Q 953.71 979.05 956.01 988.35 C 957.14 992.92 957.78 997.41 958.85 1001.96 Q 958.98 1002.47 958.50 1002.70 L 957.87 1003.00 L 668.38 1003.00 Q 660.93 998.50 653.51 993.95 Q 646.46 989.63 638.47 985.32 C 630.81 981.18 623.02 976.77 615.32 972.97 Q 606.51 968.62 597.38 964.05 C 589.95 960.34 582.05 957.23 574.28 953.75 C 566.48 950.26 558.50 947.31 550.75 943.98 Q 542.53 940.45 534.23 937.65 Q 514.48 931.00 496.98 925.14 Q 487.08 921.82 476.59 918.96 Q 458.26 913.94 442.59 910.01 Q 424.46 905.46 394.14 899.86 Q 385.41 898.24 375.11 896.69 Q 363.72 894.97 355.87 894.03 Q 337.71 891.85 314.25 889.74 Q 312.82 889.61 309.72 889.71 Q 309.19 889.52 309.16 889.31 A 0.75 0.74 -26.7 0 1 309.38 888.66 Q 317.06 881.08 320.69 872.24 C 321.51 870.25 321.69 868.18 321.95 866.07 Q 322.22 863.83 322.01 861.48 Q 321.71 858.00 321.35 854.13 Q 320.62 846.06 318.17 837.74 C 317.26 834.63 315.80 831.98 314.26 829.13 C 313.19 827.15 313.48 825.28 313.45 823.09 C 313.39 820.02 314.18 816.77 314.39 813.50 Q 314.48 812.18 316.26 809.58 Q 316.97 809.22 317.82 808.53 Q 322.36 804.87 326.29 801.21 Q 333.75 794.26 334.50 793.60 Q 351.02 778.93 367.69 763.69 Q 372.40 759.38 387.85 746.82 Q 388.93 747.57 390.15 750.59 C 391.00 752.68 393.10 751.82 394.35 750.73 Q 412.70 734.69 428.34 719.08 Q 433.90 713.52 439.53 708.30 Q 447.88 700.55 456.54 690.05 Q 474.62 668.12 483.13 655.80 Q 489.59 646.44 495.78 637.53 C 503.29 626.74 509.29 616.04 515.82 605.02 Q 520.84 596.54 525.48 587.55 Q 529.02 580.67 532.50 573.93 Q 536.30 566.55 539.36 559.86 Q 549.91 536.88 556.39 521.38 Q 559.08 514.93 560.99 504.81 C 561.62 501.44 561.64 497.94 562.27 494.50 Z" data-c-fill="462513"/><path fill="#69b0ab" d="M 316.26 809.58 Q 314.48 812.18 314.39 813.50 C 314.18 816.77 313.39 820.02 313.45 823.09 C 313.48 825.28 313.19 827.15 314.26 829.13 C 315.80 831.98 317.26 834.63 318.17 837.74 Q 320.62 846.06 321.35 854.13 Q 321.71 858.00 322.01 861.48 Q 322.22 863.83 321.95 866.07 C 321.69 868.18 321.51 870.25 320.69 872.24 Q 317.06 881.08 309.38 888.66 A 0.75 0.74 -26.7 0 0 309.16 889.31 Q 309.19 889.52 309.72 889.71 Q 293.59 889.27 277.49 888.65 C 245.65 887.42 214.66 888.26 181.10 892.18 Q 163.12 894.29 139.38 899.59 Q 115.75 904.86 96.89 911.78 Q 86.91 915.44 76.26 919.55 Q 69.89 922.01 63.56 925.18 C 62.73 925.60 61.90 925.55 61.05 925.73 Q 51.09 918.33 41.60 910.40 Q 26.55 897.84 17.22 880.37 C 11.33 869.32 6.76 857.42 4.88 845.55 C 4.39 842.49 3.53 839.53 3.25 836.44 Q 2.55 828.77 2.10 821.02 Q 1.67 813.75 2.27 807.63 Q 2.72 803.03 3.09 798.41 Q 3.43 794.07 4.27 789.62 Q 7.29 773.61 13.01 759.73 Q 18.80 745.69 29.35 732.12 C 50.18 705.34 79.71 687.93 112.35 678.08 C 119.24 676.00 126.51 674.62 133.66 673.43 Q 155.28 669.82 176.73 672.72 Q 187.41 674.16 195.96 677.30 Q 220.43 686.29 237.44 702.28 Q 247.64 711.86 257.16 727.52 Q 266.35 742.64 272.44 759.26 Q 273.22 761.40 276.22 763.03 C 283.60 767.03 290.93 771.41 298.66 774.39 C 303.43 776.23 308.69 778.09 312.93 780.86 C 314.45 781.86 315.06 783.34 315.25 785.08 C 316.10 793.03 317.31 800.43 315.83 808.50 Q 315.71 809.16 316.26 809.58 Z" data-c-fill="7f4b2a"/><path fill="#e7dfd4" d="M 309.72 889.71 Q 312.82 889.61 314.25 889.74 Q 337.71 891.85 355.87 894.03 Q 363.72 894.97 375.11 896.69 Q 385.41 898.24 394.14 899.86 Q 424.46 905.46 442.59 910.01 Q 458.26 913.94 476.59 918.96 Q 487.08 921.82 496.98 925.14 Q 514.48 931.00 534.23 937.65 Q 542.53 940.45 550.75 943.98 C 558.50 947.31 566.48 950.26 574.28 953.75 C 582.05 957.23 589.95 960.34 597.38 964.05 Q 606.51 968.62 615.32 972.97 C 623.02 976.77 630.81 981.18 638.47 985.32 Q 646.46 989.63 653.51 993.95 Q 660.93 998.50 668.38 1003.00 L 24.94 1003.00 L 24.24 1002.75 Q 23.78 1002.58 23.91 1002.10 Q 28.50 984.79 34.07 968.44 Q 34.86 966.13 35.47 963.73 C 36.49 959.72 37.82 955.96 38.04 951.80 C 38.29 946.90 39.20 942.36 41.76 938.22 Q 43.39 935.58 47.28 933.29 Q 53.71 929.51 59.86 926.89 Q 60.39 926.67 61.05 925.73 C 61.90 925.55 62.73 925.60 63.56 925.18 Q 69.89 922.01 76.26 919.55 Q 86.91 915.44 96.89 911.78 Q 115.75 904.86 139.38 899.59 Q 163.12 894.29 181.10 892.18 C 214.66 888.26 245.65 887.42 277.49 888.65 Q 293.59 889.27 309.72 889.71 Z" data-c-fill="945d36"/></svg></svg> <!----></g></g></g></g> <g data-gra="path-name-1" fill="#69b0ab" transform="translate(183.38632202148438, 50.725025975913205)"><g transform="scale(0.8199999999999996)"><path d="M17.63-11.18L17.63-7.73 6.79-7.73 6.79-11.18 17.63-11.18ZM19.16-18.91L19.16-15.48 5.42-15.48 5.42 0 1.99 0 1.99-17.18Q1.99-17.54 2.12-17.86 2.26-18.17 2.49-18.41 2.72-18.65 3.03-18.78 3.35-18.91 3.72-18.91L3.72-18.91 19.16-18.91ZM32.51-14.26L32.51-10.83 24.8-10.83Q24.1-10.83 23.74-10.48 23.39-10.13 23.39-9.46L23.39-9.46 23.39 0 19.96 0 19.96-9.46Q19.96-10.34 20.18-11.04 20.4-11.74 20.78-12.27 21.16-12.81 21.64-13.18 22.13-13.56 22.67-13.8 23.2-14.03 23.75-14.14 24.3-14.26 24.77-14.26L24.77-14.26 32.51-14.26ZM49.05-9.54L49.05-9.54Q49.05-8.82 48.8-8 48.55-7.17 47.99-6.47 47.43-5.76 46.53-5.29 45.62-4.81 44.33-4.81L44.33-4.81 38.15-4.81 38.15-8.07 44.33-8.07Q45.03-8.07 45.41-8.5 45.8-8.93 45.8-9.56L45.8-9.56Q45.8-10.23 45.37-10.62 44.94-11 44.33-11L44.33-11 38.15-11Q37.45-11 37.06-10.57 36.68-10.14 36.68-9.51L36.68-9.51 36.68-4.72Q36.68-4.04 37.11-3.65 37.54-3.27 38.17-3.27L38.17-3.27 44.33-3.27 44.33 0 38.15 0Q37.43 0 36.61-0.25 35.79-0.5 35.08-1.06 34.37-1.62 33.9-2.53 33.42-3.43 33.42-4.72L33.42-4.72 33.42-9.54Q33.42-10.25 33.67-11.07 33.93-11.9 34.49-12.6 35.05-13.31 35.95-13.78 36.85-14.26 38.15-14.26L38.15-14.26 44.33-14.26Q45.04-14.26 45.87-14.01 46.69-13.76 47.4-13.2 48.1-12.63 48.58-11.73 49.05-10.83 49.05-9.54ZM66-20.28L66-4.81Q66-3.93 65.78-3.22 65.55-2.52 65.18-1.98 64.82-1.45 64.33-1.07 63.84-0.7 63.31-0.46 62.77-0.22 62.22-0.11 61.68 0 61.19 0L61.19 0 55 0Q54.12 0 53.42-0.22 52.72-0.45 52.19-0.82 51.65-1.2 51.28-1.69 50.9-2.18 50.66-2.71 50.43-3.24 50.31-3.79 50.2-4.34 50.2-4.81L50.2-4.81 50.2-9.46Q50.2-10.78 50.68-11.69 51.17-12.61 51.88-13.18 52.6-13.76 53.45-14.01 54.29-14.26 55-14.26L55-14.26 61.19-14.26 61.19-10.83 55.03-10.83Q54.34-10.83 53.99-10.48 53.63-10.13 53.63-9.46L53.63-9.46 53.63-4.84Q53.63-4.14 53.98-3.79 54.33-3.43 55-3.43L55-3.43 61.19-3.43Q61.89-3.43 62.23-3.79 62.57-4.14 62.57-4.81L62.57-4.81 62.57-20.28 66-20.28ZM71.16-18.12L70.62-11.47 68.43-11.47 67.93-18.12 71.16-18.12Z" transform="translate(-1.9900000095367432, 20.280000686645508)"/></g></g></g> <g data-gra="path-slogan" fill-rule="" class="tp-slogan iconsvg-slogansvg" fill="##69b0ab" transform="translate(5.000007629394531,124.29594421386719)"><rect x="0" height="1" y="5.048800468444824" width="89.95966339111328"/> <rect height="1" y="5.048800468444824" width="89.95966339111328" x="140.14606475830078"/> <g transform="translate(92.95966339111328,0)"><g transform="scale(1.3599999999999999)"><path d="M1.10-1.72L0.50-1.02C0.85-0.66 1.26-0.38 1.73-0.17C2.20 0.04 2.71 0.14 3.26 0.14C3.68 0.14 4.05 0.09 4.38-0.03C4.71-0.15 4.99-0.31 5.22-0.51C5.45-0.71 5.63-0.95 5.75-1.22C5.88-1.50 5.94-1.79 5.94-2.10C5.94-2.39 5.90-2.64 5.81-2.86C5.73-3.08 5.62-3.27 5.47-3.44C5.33-3.60 5.16-3.75 4.96-3.87C4.76-3.99 4.54-4.10 4.32-4.20L3.20-4.68C3.04-4.74 2.89-4.81 2.74-4.89C2.58-4.97 2.44-5.05 2.32-5.15C2.19-5.25 2.09-5.37 2.01-5.50C1.93-5.63 1.90-5.80 1.90-5.99C1.90-6.35 2.03-6.63 2.30-6.83C2.57-7.04 2.92-7.14 3.36-7.14C3.73-7.14 4.06-7.07 4.35-6.94C4.64-6.81 4.91-6.63 5.15-6.40L5.69-7.04C5.41-7.33 5.07-7.57 4.67-7.75C4.27-7.93 3.83-8.02 3.36-8.02C3-8.02 2.67-7.96 2.37-7.86C2.07-7.76 1.81-7.61 1.59-7.42C1.37-7.23 1.20-7.01 1.07-6.76C0.95-6.50 0.89-6.22 0.89-5.93C0.89-5.64 0.94-5.39 1.03-5.17C1.13-4.95 1.25-4.76 1.40-4.60C1.56-4.44 1.73-4.30 1.92-4.19C2.11-4.08 2.30-3.98 2.48-3.90L3.61-3.41C3.80-3.32 3.97-3.24 4.13-3.16C4.29-3.08 4.43-2.99 4.54-2.89C4.66-2.79 4.75-2.67 4.82-2.53C4.89-2.39 4.92-2.22 4.92-2.02C4.92-1.63 4.78-1.32 4.49-1.09C4.20-0.85 3.80-0.73 3.28-0.73C2.87-0.73 2.47-0.82 2.09-1.00C1.71-1.18 1.38-1.42 1.10-1.72ZM8.88-7.03L8.88 0L9.89 0L9.89-7.03L12.26-7.03L12.26-7.87L6.50-7.87L6.50-7.03ZM16.30 0.14C16.79 0.14 17.25 0.05 17.66-0.14C18.07-0.34 18.43-0.61 18.73-0.97C19.03-1.32 19.26-1.75 19.42-2.26C19.59-2.77 19.67-3.34 19.67-3.97C19.67-4.60 19.59-5.16 19.42-5.66C19.26-6.16 19.03-6.58 18.73-6.93C18.43-7.28 18.07-7.55 17.66-7.73C17.25-7.92 16.79-8.02 16.30-8.02C15.80-8.02 15.35-7.92 14.93-7.74C14.52-7.56 14.17-7.29 13.87-6.94C13.58-6.59 13.35-6.17 13.18-5.67C13.02-5.17 12.94-4.60 12.94-3.97C12.94-3.34 13.02-2.77 13.18-2.26C13.35-1.75 13.58-1.32 13.87-0.97C14.17-0.61 14.52-0.34 14.93-0.14C15.35 0.05 15.80 0.14 16.30 0.14ZM16.30-0.73C15.94-0.73 15.63-0.81 15.34-0.96C15.06-1.11 14.81-1.33 14.61-1.61C14.41-1.90 14.25-2.24 14.14-2.63C14.02-3.03 13.97-3.48 13.97-3.97C13.97-4.46 14.02-4.90 14.14-5.29C14.25-5.68 14.41-6.02 14.61-6.29C14.81-6.56 15.06-6.77 15.34-6.92C15.63-7.07 15.94-7.14 16.30-7.14C16.65-7.14 16.97-7.07 17.25-6.92C17.53-6.77 17.78-6.56 17.98-6.29C18.19-6.02 18.34-5.68 18.46-5.29C18.57-4.90 18.62-4.46 18.62-3.97C18.62-3.48 18.57-3.03 18.46-2.63C18.34-2.24 18.19-1.90 17.98-1.61C17.78-1.33 17.53-1.11 17.25-0.96C16.97-0.81 16.65-0.73 16.30-0.73ZM22.36-4.14L22.36-7.07L23.68-7.07C24.29-7.07 24.76-6.96 25.09-6.76C25.42-6.55 25.58-6.18 25.58-5.66C25.58-5.15 25.42-4.77 25.09-4.52C24.76-4.27 24.29-4.14 23.68-4.14ZM25.68 0L26.81 0L24.82-3.43C25.35-3.57 25.78-3.82 26.10-4.19C26.42-4.56 26.58-5.05 26.58-5.66C26.58-6.07 26.51-6.42 26.38-6.70C26.24-6.98 26.05-7.20 25.81-7.38C25.56-7.56 25.27-7.68 24.93-7.76C24.59-7.83 24.22-7.87 23.82-7.87L21.36-7.87L21.36 0L22.36 0L22.36-3.32L23.78-3.32ZM28.33-7.87L28.33 0L32.99 0L32.99-0.85L29.33-0.85L29.33-3.71L32.32-3.71L32.32-4.56L29.33-4.56L29.33-7.03L32.87-7.03L32.87-7.87Z" transform="translate(-0.504, 8.016)"/></g></g></g></g><defs v-gra="od"/></svg>